+15_ID_stride3.mot
nRows=13
nColumns=38

name +15_ID_stride3.mot
datacolumns 38
datarows 13
range 0.9500000000 1.0100000000
endheader
time	pelvis_tilt_moment	pelvis_list_moment	pelvis_rotation_moment	pelvis_tx_force	pelvis_ty_force	pelvis_tz_force	hip_flexion_r_moment	hip_adduction_r_moment	hip_rotation_r_moment	knee_angle_r_moment	ankle_angle_r_moment	subtalar_angle_r_moment	mtp_angle_r_moment	hip_flexion_l_moment	hip_adduction_l_moment	hip_rotation_l_moment	knee_angle_l_moment	ankle_angle_l_moment	subtalar_angle_l_moment	mtp_angle_l_moment	lumbar_extension_moment	lumbar_bending_moment	lumbar_rotation_moment	arm_flex_r_moment	arm_add_r_moment	arm_rot_r_moment	elbow_flex_r_moment	pro_sup_r_moment	wrist_flex_r_moment	wrist_dev_r_moment	arm_flex_l_moment	arm_add_l_moment	arm_rot_l_moment	elbow_flex_l_moment	pro_sup_l_moment	wrist_flex_l_moment	wrist_dev_l_moment
        0.9500000000	       10.3338444553	       18.5502566154	       35.9441910432	      -13.5433590387	       -2.0117917819	      -37.5328462948	      -13.7282386895	       -7.6813049663	        0.9460763909	       -0.9140620071	        2.3759740753	       -0.5190805515	        0.1299032331	       10.2733383787	      -44.5500099899	       -6.9062293116	       11.1066904138	     -178.1774084297	       24.0240085474	       -0.0356448246	       41.8153909054	       12.1441420312	       44.9944360812	        8.1870281850	        6.0492086812	        4.7905769084	        5.9533118804	        0.0277220584	        0.6334113266	       -0.4012193813	       -0.4026322044	       -2.1360103554	       -3.7484021500	        5.6293411596	       -0.2326317509	       -0.3178153759	       -0.5862815411	
        0.9550000000	       10.4827870187	        6.1930872578	       27.1755146826	       -7.6448838286	       -0.9021290245	      -55.3566836261	      -16.8363591649	      -11.4868838263	        1.4816531250	       -1.3209539527	        2.4367595072	       -0.6024259471	        0.1301347172	       12.4103389784	      -43.9869502342	       -1.0847578777	        4.5735994045	     -169.1976745738	       24.3601604965	       -0.0386633065	       30.6349236294	        8.1884163495	       45.8323956185	        8.4418923931	        5.8851894577	        4.7316224547	        5.5599257931	        0.0371077760	        0.6215366006	       -0.3626522184	       -0.5328891677	       -2.3876348677	       -3.8859029910	        5.1039574323	       -0.2293018726	       -0.3461126370	       -0.5422323241	
        0.9600000000	       11.0060627596	      -12.7966010423	       18.8958307622	       -4.8653522538	        3.5960098958	      -67.9262154129	      -20.6748930041	      -14.7121452733	        1.8464645859	       -1.8958929582	        2.4918449633	       -0.6860860627	        0.1309027794	        9.9930349024	      -42.6316701618	        1.6222080176	       -4.2871165181	     -159.3653950259	       23.7784365213	       -0.0414730428	       19.2053071223	        3.9021325882	       45.1533134171	        8.4120798853	        5.5773273397	        4.5487226220	        5.1229024021	        0.0423882094	        0.5943137486	       -0.3235473870	       -0.5868269278	       -2.4220536105	       -3.8442049225	        4.5428341176	       -0.2209641177	       -0.3508133860	       -0.4908180269	
        0.9650000000	       12.5080827446	      -31.0849820631	       13.8249927821	       -3.9933196790	       10.5001455348	      -77.3182497332	      -25.0923660346	      -16.1881227113	        1.9876934870	       -2.6671831759	        2.5438232323	       -0.7665668841	        0.1324363043	        7.5260256332	      -39.5877906482	        2.3505125836	      -11.5050053573	     -148.1080065164	       22.3552185286	       -0.0437427534	        8.6099194529	       -0.7611627175	       43.2816507178	        8.2677412690	        5.1475934431	        4.2387839284	        4.6593096625	        0.0451659931	        0.5534442799	       -0.2848311623	       -0.6377907952	       -2.4206241317	       -3.7039108530	        3.9594382338	       -0.2076473909	       -0.3510001710	       -0.4345726952	
        0.9700000000	       17.3639586284	      -41.9342633392	       12.2917225896	       -5.6136844110	       15.7991617458	      -84.0164761612	      -29.9885236946	      -16.2593478262	        1.9100059658	       -3.7214612190	        2.5943986108	       -0.8397841062	        0.1350654941	        9.9851851656	      -32.0396275848	       -0.5044898207	      -14.7215381160	     -134.3977844628	       20.6737751445	       -0.0451399333	       -0.0620849694	       -5.9074370523	       40.4577950288	        7.8418126750	        4.6211567244	        3.8550486834	        4.1787685314	        0.0462413604	        0.5045810708	       -0.2472308922	       -0.7524760503	       -2.2464209862	       -3.4267021316	        3.3599975186	       -0.1906076897	       -0.3338092385	       -0.3751068355	
        0.9750000000	       22.8880004350	      -40.3244697670	       12.9506159506	       -9.1598554792	       15.0594365851	      -86.1846811997	      -35.0947842209	      -13.8134158288	        1.5983351282	       -5.0989760423	        2.6440469405	       -0.9014444539	        0.1385958248	       19.7102970009	      -22.3873254280	       -3.2301218556	      -12.7365859302	     -118.9571814396	       19.4741341531	       -0.0445951294	       -5.9701670850	      -11.1152682343	       37.3623657179	        7.2238045771	        4.0132147022	        3.4360802606	        3.6750622160	        0.0469961544	        0.4526603607	       -0.2095336841	       -1.0280956303	       -1.9828067198	       -3.0766172769	        2.7364418897	       -0.1708255005	       -0.3101434495	       -0.3131562566	
        0.9800000000	       23.3524729819	      -30.6908712321	       13.5126991349	      -13.6441900609	        6.9636786334	      -81.3298924489	      -40.2285210076	       -9.0850718158	        1.1613340607	       -6.8783256129	        2.6899498241	       -0.9484084475	        0.1426375438	       33.9335974150	      -13.6173925356	       -3.0499939889	       -8.1664918032	     -102.6428455477	       18.3600480342	       -0.0415817788	       -8.5529105191	      -15.6783023428	       34.3972904834	        6.4191574626	        3.3166484196	        3.0028964234	        3.1242738375	        0.0487068712	        0.4002427324	       -0.1691001804	       -1.5164505192	       -1.6290262722	       -2.6729482541	        2.0675879406	       -0.1485664192	       -0.2826967638	       -0.2475620985	
        0.9850000000	       20.2820233494	      -14.5672600397	       14.0124276176	      -16.4168763083	      -14.2261848138	      -66.1054885643	      -45.4377116616	       -2.3201277394	        0.7297931765	       -9.2011710658	        2.7119499522	       -0.9750029689	        0.1464523100	       48.3748059034	       -8.5849857112	       -1.2813558019	       -3.3219162603	      -86.6752541204	       16.7264064878	       -0.0345096677	       -8.4973940032	      -18.5116266874	       31.8940396908	        5.4449149781	        2.5291481942	        2.5722713933	        2.4962002063	        0.0522929853	        0.3488877619	       -0.1227164032	       -2.2500710580	       -1.1982095124	       -2.2384843946	        1.3295692446	       -0.1239767529	       -0.2548112638	       -0.1764843157	
        0.9900000000	        9.4440279314	        2.5773138456	       14.8932959162	      -16.9359626565	      -51.7894153287	      -39.1468762130	      -50.5720113182	        5.8023988723	        0.5409123040	      -12.1664712643	        2.7159505260	       -0.9829813838	        0.1482355246	       59.5560962876	       -6.2509264897	        1.8046872743	       -0.7190786704	      -72.2147006510	       14.3581517537	       -0.0222686755	       -6.9920502307	      -19.3946188477	       30.0031906377	        4.3268188726	        1.6743767586	        2.1632756916	        1.7671448912	        0.0585565274	        0.2996487496	       -0.0676188686	       -3.2167134775	       -0.7294123453	       -1.8022550099	        0.5077732581	       -0.0974118941	       -0.2299031596	       -0.0985600292	
        0.9950000000	       -4.8850078357	       18.3312018120	       18.2118018662	      -10.9214209163	     -109.3923375403	       -2.6455764023	      -55.4034246282	       14.5499669566	        0.6241692025	      -15.8366003619	        2.6818327928	       -0.9692506600	        0.1483233508	       66.5756475905	       -5.3708809274	        4.1674718875	       -0.1610314175	      -59.9135329938	       11.4842044609	       -0.0033810140	       -4.5820738804	      -17.8929452735	       28.6825091424	        3.0881526491	        0.7812471693	        1.7869235548	        0.9166671303	        0.0681035446	        0.2529694529	       -0.0011804421	       -4.3817828397	       -0.2607042259	       -1.3853862085	       -0.4075513338	       -0.0692250288	       -0.2094506801	       -0.0127332968	
        1.0000000000	      -17.0055860767	       33.0330034779	       23.4144686890	       -0.2332280248	     -179.8682798578	       35.7403247739	      -60.2512660068	       22.6886104692	        1.0014965355	      -20.2447783611	        2.6055463277	       -0.9374277396	        0.1461313345	       72.6122194020	       -2.5519680343	        4.3937682526	        0.7685926007	      -48.8151816904	        9.0746830687	        0.0217820151	       -3.4414047047	      -14.9907615067	       27.7773972383	        1.7818788493	       -0.0519286399	        1.4743598487	       -0.0249423585	        0.0801828599	        0.2102762805	        0.0748251328	       -5.6246347463	        0.1161791859	       -1.0289233654	       -1.3801006630	       -0.0408927069	       -0.1962273967	        0.0783656518	
        1.0050000000	      -21.4301788055	       46.3034352829	       30.1023080448	       14.9960674049	     -256.5889927582	       71.6199083919	      -65.6898467370	       29.4407387159	        1.8995064073	      -25.6376291252	        2.4478320311	       -0.8760556038	        0.1383862892	       79.6065053961	        4.2427149807	        3.9640781257	        3.2995089049	      -37.8818103001	        7.3655773432	        0.0545833873	       -3.6798978460	      -10.8624831263	       27.0360776732	        0.4468056232	       -0.7393868037	        1.2479878346	       -1.0214858103	        0.0945119613	        0.1733204144	        0.1582784612	       -6.8598723670	        0.2900543532	       -0.7600614802	       -2.3651363374	       -0.0139310269	       -0.1920239906	        0.1711317071	
        1.0100000000	      -21.3710306905	       52.8384842656	       36.0015786259	       29.3355638768	     -320.2273860418	      100.0726470256	      -72.2826872745	       34.0496270407	        3.1377028878	      -32.0619347805	        2.1910539465	       -0.7870963835	        0.1252404177	       88.1656074389	       14.8198261048	        2.7042686960	        8.7847423298	      -26.4476716602	        6.1883680264	        0.0941601930	       -6.4412533962	       -7.0849312728	       26.2176199831	       -0.8396046311	       -1.1701836603	        1.1410285637	       -1.9805969667	        0.1093907184	        0.1440937504	        0.2417283952	       -7.9540802388	        0.3105522446	       -0.6060921629	       -3.2722445280	        0.0093974649	       -0.1920401684	        0.2579096058	
